<svg id="visual" viewBox="0 0 900 600" width="900" height="600" xmlns="http://www.w3.org/2000/svg" xmlns:xlink="http://www.w3.org/1999/xlink" version="1.1"><path d="M0 506L21.5 510.7C43 515.3 86 524.7 128.8 525.2C171.7 525.7 214.3 517.3 257.2 513.7C300 510 343 511 385.8 512.5C428.7 514 471.3 516 514.2 521C557 526 600 534 642.8 532C685.7 530 728.3 518 771.2 512.5C814 507 857 508 878.5 508.5L900 509L900 601L878.5 601C857 601 814 601 771.2 601C728.3 601 685.7 601 642.8 601C600 601 557 601 514.2 601C471.3 601 428.7 601 385.8 601C343 601 300 601 257.2 601C214.3 601 171.7 601 128.8 601C86 601 43 601 21.5 601L0 601Z" fill="#f25487"></path><path d="M0 537L21.5 538.8C43 540.7 86 544.3 128.8 544.7C171.7 545 214.3 542 257.2 546.7C300 551.3 343 563.7 385.8 569C428.7 574.3 471.3 572.7 514.2 572.2C557 571.7 600 572.3 642.8 569.3C685.7 566.3 728.3 559.7 771.2 553.7C814 547.7 857 542.3 878.5 539.7L900 537L900 601L878.5 601C857 601 814 601 771.2 601C728.3 601 685.7 601 642.8 601C600 601 557 601 514.2 601C471.3 601 428.7 601 385.8 601C343 601 300 601 257.2 601C214.3 601 171.7 601 128.8 601C86 601 43 601 21.5 601L0 601Z" fill="#333333"></path></svg>