<svg xmlns="http://www.w3.org/2000/svg" xmlns:xlink="http://www.w3.org/1999/xlink" version="1.1" width="1000" height="1000" viewBox="0 0 1000 1000" xml:space="preserve">
<desc>Created with Fabric.js 3.5.0</desc>
<defs>
</defs>
<rect x="0" y="0" width="100%" height="100%" fill="#ffffff"/>
<g transform="matrix(0.7217 0 0 2.4661 489.3902 845.0024)" id="883260">
<path style="stroke: none; stroke-width: 1; stroke-dasharray: none; stroke-linecap: butt; stroke-dashoffset: 0; stroke-linejoin: miter; stroke-miterlimit: 4; is-custom-font: none; font-file-url: none; fill: rgb(242,84,135); fill-rule: nonzero; opacity: 1;" vector-effect="non-scaling-stroke" transform=" translate(-720, -256)" d="M 0 256 L 80 240 C 160 224 320 192 480 192 C 640 192 800 224 960 234.7 C 1120 245 1280 235 1360 229.3 L 1440 224 L 1440 320 L 1360 320 C 1280 320 1120 320 960 320 C 800 320 640 320 480 320 C 320 320 160 320 80 320 L 0 320 Z" stroke-linecap="round"/>
</g>
</svg>